<?xml version="1.0" encoding="utf-8"?>
<!-- Generator: Adobe Illustrator 17.0.0, SVG Export Plug-In . SVG Version: 6.00 Build 0)  -->
<!DOCTYPE svg PUBLIC "-//W3C//DTD SVG 1.1//EN" "http://www.w3.org/Graphics/SVG/1.1/DTD/svg11.dtd">
<svg version="1.1" id="图层_1" xmlns="http://www.w3.org/2000/svg" xmlns:xlink="http://www.w3.org/1999/xlink" x="0px" y="0px"
	 width="12px" height="162px" viewBox="0 0 12 162" enable-background="new 0 0 12 162" xml:space="preserve">
<path fill-rule="evenodd" clip-rule="evenodd" fill="#524D4D" d="M6.016,127.04l5.723-5.723c-0.182-0.193-0.437-0.317-0.723-0.317
	h-10c-0.286,0-0.541,0.124-0.723,0.317L6.016,127.04z"/>
<path fill-rule="evenodd" clip-rule="evenodd" fill="#524D4D" d="M0.015,122.071V129c0,0.552,0.448,1,1,1h10c0.552,0,1-0.448,1-1
	v-6.929l-6,6L0.015,122.071z"/>
<polygon fill-rule="evenodd" clip-rule="evenodd" fill="#FFFFFF" points="7.014,150 5.014,150 5.014,155 0.016,155 0.016,157 
	5.014,157 5.014,162 7.014,162 7.014,157 12.013,157 12.013,155 7.014,155 "/>
<polygon fill-rule="evenodd" clip-rule="evenodd" fill="#524D4D" points="7.995,4 8.993,4 8.993,6.047 12,3 8.993,0 8.993,2 
	0.015,2 0.015,4 3.007,4 "/>
<polygon fill-rule="evenodd" clip-rule="evenodd" fill="#524D4D" points="3.007,10 11.985,10 11.985,8 3.007,8 3.007,6.047 0,9 
	3.007,12.016 "/>
<polygon fill-rule="evenodd" clip-rule="evenodd" fill="#524D4D" points="12.015,33.586 10.526,32.086 4.585,38.071 1.451,34.914 
	-0.038,36.414 4.585,41.071 "/>
<polygon fill-rule="evenodd" clip-rule="evenodd" fill="#524D4D" points="12.013,65 7.014,65 7.014,60 5.014,60 5.014,65 0.016,65 
	0.016,67 5.014,67 5.014,72 7.014,72 7.014,67 12.013,67 "/>
<polygon fill-rule="evenodd" clip-rule="evenodd" fill="#524D4D" points="2.336,101.009 6.008,97.336 9.68,101.009 11.015,99.672 
	7.344,96 11.015,92.328 9.68,90.991 6.008,94.664 2.336,90.991 1,92.328 4.672,96 1,99.672 "/>
</svg>
