<?xml version="1.0" encoding="UTF-8" standalone="no"?>
<svg width="34px" height="72px" viewBox="0 0 34 72" version="1.1" xmlns="http://www.w3.org/2000/svg" xmlns:xlink="http://www.w3.org/1999/xlink" xmlns:sketch="http://www.bohemiancoding.com/sketch/ns">
    <!-- Generator: Sketch 3.2.1 (9971) - http://www.bohemiancoding.com/sketch -->
    <title>icon_checkbox_pins_sele</title>
    <desc>Created with Sketch.</desc>
    <defs></defs>
    <g id="Page-1" stroke="none" stroke-width="1" fill="none" fill-rule="evenodd" sketch:type="MSPage">
        <circle id="Oval-1" fill-opacity="0.5" fill="#FFFFFF" sketch:type="MSShapeGroup" cx="17" cy="17" r="17"></circle>
        <path d="M17,32 C25.2842712,32 32,25.2842712 32,17 C32,8.71572875 25.2842712,2 17,2 C8.71572875,2 2,8.71572875 2,17 C2,25.2842712 8.71572875,32 17,32 Z M17,30 C24.1797017,30 30,24.1797017 30,17 C30,9.82029825 24.1797017,4 17,4 C9.82029825,4 4,9.82029825 4,17 C4,24.1797017 9.82029825,30 17,30 Z" id="Oval-2" fill-opacity="0.3" fill="#000000" sketch:type="MSShapeGroup"></path>
        <path d="M10.0147186,14.6213203 L8.51471863,16.1213203 L14.8786797,22.4852814 L25.4852814,11.8786797 L23.9852814,10.3786797 L14.8786797,19.4852814 L10.0147186,14.6213203 Z" id="Rectangle-27" fill-opacity="0.1" fill="#000000" sketch:type="MSShapeGroup"></path>
        <circle id="Oval-4" fill-opacity="0.9" fill="#C90000" sketch:type="MSShapeGroup" cx="17" cy="57" r="15"></circle>
        <path d="M10.0147186,54.6213203 L8.51471863,56.1213203 L14.8786797,62.4852814 L25.4852814,51.8786797 L23.9852814,50.3786797 L14.8786797,59.4852814 L10.0147186,54.6213203 Z" id="Rectangle-29" fill="#FFFFFF" sketch:type="MSShapeGroup"></path>
    </g>
</svg>