<?xml version="1.0" encoding="UTF-8" standalone="no"?>
<svg width="12px" height="572px" viewBox="0 0 12 572" version="1.1" xmlns="http://www.w3.org/2000/svg" xmlns:xlink="http://www.w3.org/1999/xlink" xmlns:sketch="http://www.bohemiancoding.com/sketch/ns">
    <!-- Generator: Sketch 3.0.3 (7891) - http://www.bohemiancoding.com/sketch -->
    <title>icon_user_menu</title>
    <desc>Created with Sketch.</desc>
    <defs></defs>
    <g id="Page-1" stroke="none" stroke-width="1" fill="none" fill-rule="evenodd" sketch:type="MSPage">
        <g id="all" sketch:type="MSArtboardGroup">
            <g id="icon_user_menu" sketch:type="MSLayerGroup" fill="#1A1A1A">
                <path d="M12.008,10 L7.008,7.5 L7.008,6.786 C8.171,6.304 9.008,5.022 9.008,3.5 C9.008,0.838 8.204,-4.4408921e-16 6.008,-4.4408921e-16 C3.789,-4.4408921e-16 3.008,0.838 3.008,3.5 C3.008,5.022 3.845,6.303 5.008,6.786 L5.008,7.5 L0.008,10 L0.008,12 L12.008,12 L12.008,10 L12.008,10 Z M9.008,202.758 L9.008,205.001 L5.008,205.001 L5.008,207.001 L9.008,207.001 L9.008,209.244 L12.251,206.001 L9.008,202.758 L9.008,202.758 Z M5.008,364.001 C5.008,364.979 5.404,365.84 6.008,366.387 L6.008,367.991 L3.008,370.001 L3.008,372.001 L12.008,372.001 L12.008,370.001 L8.993,368.001 L9.008,368.001 L9.008,366.387 C9.612,365.839 10.008,364.979 10.008,364.001 C10.008,361.719 9.338,361.001 7.508,361.001 C5.659,361 5.008,361.719 5.008,364.001 L5.008,364.001 Z M8.008,288.001 L8.008,286.001 L8.088,286.001 C8.652,285.369 9.008,284.487 9.008,283.501 C9.008,280.839 8.204,280 6.008,280 C3.789,280 3.008,280.838 3.008,283.501 C3.008,285.023 3.845,286.304 5.008,286.786 L5.008,287.5 L0.008,290 L0.008,292 L6.008,292 L8.008,292 L8.008,291 L6.008,291 L6.008,288 L8.008,288 L8.008,288.001 Z M1.008,88 L1.008,91 C1.008,91.552 1.456,92 2.008,92 L3.008,92 C3.56,92 4.008,91.552 4.008,91 L4.008,88 C4.008,87.448 3.56,87 3.008,87 L4.008,87 L4.008,86 L3.008,86 L3.008,81.656 C3.008,80.965 3.477,80.937 3.477,80.937 C3.477,80.661 2.784,80 2.508,80 C2.232,80 1.664,80.567 1.664,80.844 C1.664,80.844 2.008,80.896 2.008,81.5 L2.008,86 L1.008,86 L1.008,87 L2.008,87 C1.456,87 1.008,87.448 1.008,88 L1.008,88 Z M11.008,326.001 L7.008,326.001 L7.008,332.001 L11.008,332.001 L11.008,326.001 L11.008,326.001 Z M7.008,203 L7.008,201 L1.008,201 L1.008,211 L7.008,211 L7.008,209 L3.008,209 L3.008,203 L7.008,203 L7.008,203 Z M11.008,241.001 L5.008,241.001 L5.008,243.001 L9.008,243.001 L9.008,249.001 L5.008,249.001 L5.008,251.001 L11.008,251.001 L11.008,241.001 L11.008,241.001 Z M0.008,371 L2.008,371 L2.008,369.6 L5.402,367.144 C4.565,366.416 4.008,365.295 4.008,364 C4.008,361.747 4.512,360.642 5.822,360.217 C5.472,360.073 5.046,360 4.508,360 C2.659,360 2.008,360.718 2.008,363 C2.008,363.978 2.404,364.839 3.008,365.386 L3.008,366.479 L0.008,369 L0.008,371 L0.008,371 Z M0.008,325.001 L5.008,325.001 L5.008,323.001 L5.563,323.001 C5.826,322.403 4.875,321.427 4.067,320.767 C3.951,320.672 3.838,320.583 3.732,320.503 C2.851,319.837 1.732,319.833 1.232,320.494 C0.733,321.155 1.042,322.231 1.923,322.897 C1.974,322.935 2.042,322.967 2.101,323.002 L0.008,323.002 L0.008,325.001 L0.008,325.001 Z M2.292,321.336 C2.575,321 3.21,321.003 3.71,321.341 C4.21,321.679 5.009,322.329 4.725,322.665 C4.442,323.001 3.183,322.895 2.684,322.556 C2.184,322.218 2.008,321.672 2.292,321.336 L2.292,321.336 Z M5.008,332.001 L5.008,326.001 L1.008,326.001 L1.008,332.001 L5.008,332.001 L5.008,332.001 Z M0.008,247 L4.008,247 L4.008,249.243 L7.251,246 L4.008,242.757 L4.008,245 L0.008,245 L0.008,247 L0.008,247 Z M10.008,481.001 L2.008,481.001 C1.456,481.001 1.008,481.449 1.008,482.001 L1.008,490.001 C1.008,490.553 1.456,491.001 2.008,491.001 L10.008,491.001 C10.56,491.001 11.008,490.553 11.008,490.001 L11.008,482.001 C11.008,481.448 10.561,481.001 10.008,481.001 L10.008,481.001 Z M7.02,486.012 L7.02,490.001 L4.994,490.001 L4.994,486.012 L2.022,486.012 L6.007,482.022 L10.023,486.012 L7.02,486.012 L7.02,486.012 Z M8.008,526.001 L8.008,525.001 L10.008,525.001 L10.008,526.001 L11.008,526.001 L11.008,521.001 C11.008,520.449 10.56,520.001 10.008,520.001 L2.008,520.001 C1.456,520.001 1.008,520.449 1.008,521.001 L1.008,531.001 C1.008,531.553 1.456,532.001 2.008,532.001 L6.008,532.001 L6.008,530.001 L5.008,530.001 L5.008,528.001 L6.008,528.001 L6.008,527.001 L5.008,527.001 L5.008,525.001 L7.008,525.001 L7.008,526.001 L8.008,526.001 L8.008,526.001 Z M8.008,522.001 L10.008,522.001 L10.008,524.001 L8.008,524.001 L8.008,522.001 L8.008,522.001 Z M4.008,530.001 L2.008,530.001 L2.008,528.001 L4.008,528.001 L4.008,530.001 L4.008,530.001 Z M4.008,527.001 L2.008,527.001 L2.008,525.001 L4.008,525.001 L4.008,527.001 L4.008,527.001 Z M4.008,524.001 L2.008,524.001 L2.008,522.001 L4.008,522.001 L4.008,524.001 L4.008,524.001 Z M5.008,524.001 L5.008,522.001 L7.008,522.001 L7.008,524.001 L5.008,524.001 L5.008,524.001 Z M10.008,527.001 L9.008,527.001 L9.008,529.001 L7.008,529.001 L7.008,530.001 L9.008,530.001 L9.008,532.001 L10.008,532.001 L10.008,530.001 L12.008,530.001 L12.008,529.001 L10.008,529.001 L10.008,527.001 L10.008,527.001 Z M10.008,287.001 L9.008,287.001 L9.008,289.001 L7.008,289.001 L7.008,290.001 L9.008,290.001 L9.008,292.001 L10.008,292.001 L10.008,290.001 L12.008,290.001 L12.008,289.001 L10.008,289.001 L10.008,287.001 L10.008,287.001 Z M10.093,322.896 C10.974,322.23 11.283,321.154 10.784,320.493 C10.284,319.832 9.165,319.836 8.284,320.502 C7.446,321.135 6.152,322.317 6.453,323 L7.008,323 L7.008,325 L12.008,325 L12.008,323 L9.914,323 C9.974,322.965 10.042,322.934 10.093,322.896 L10.093,322.896 Z M9.333,322.556 C8.833,322.894 7.575,323 7.292,322.665 C7.009,322.329 7.808,321.679 8.307,321.341 C8.807,321.003 9.442,321.001 9.725,321.336 C10.008,321.672 9.833,322.218 9.333,322.556 L9.333,322.556 Z M12.008,82 C12.008,81.448 11.56,81 11.008,81 L10.008,81 C10.008,80.448 9.56,80 9.008,80 L7.008,80 C6.456,80 6.008,80.447 6.008,81 L5.008,81 L5.008,80 L4.008,80 L4.008,81 L4.008,82 L4.008,83 L5.008,83 L5.008,82 L6.008,82 C6.008,82.552 6.456,83 7.008,83 L7.008,91 C7.008,91.552 7.456,92 8.008,92 C8.56,92 9.008,91.552 9.008,91 L9.008,83 L11.008,83 C11.56,83 12.008,82.553 12.008,82 L12.008,82 Z M5.501,41 C3.02,41 1.008,43.012 1.008,45.493 C1.008,47.974 3.02,49.986 5.501,49.986 C6.451,49.986 7.33,49.687 8.056,49.184 L9.49,50.732 C9.837,51.079 10.4,51.079 10.746,50.732 C11.093,50.385 11.093,49.822 10.746,49.475 L9.198,48.041 C9.698,47.317 9.994,46.441 9.994,45.494 C9.994,43.012 7.983,41 5.501,41 L5.501,41 Z M5.517,48.009 C4.137,48.009 3.018,46.89 3.018,45.51 C3.018,44.13 4.137,43.011 5.517,43.011 C6.897,43.011 8.016,44.13 8.016,45.51 C8.017,46.89 6.898,48.009 5.517,48.009 L5.517,48.009 Z M3.008,132.001 L8.008,132.001 C8.56,132.001 9.008,131.553 9.008,131.001 L9.008,121.001 C9.008,120.449 8.56,120.001 8.008,120.001 L3.008,120.001 C2.456,120.001 2.008,120.449 2.008,121.001 L2.008,131.001 C2.008,131.553 2.456,132.001 3.008,132.001 L3.008,132.001 Z M5.508,131 C5.232,131 5.008,130.881 5.008,130.734 C5.008,130.587 5.232,130.468 5.508,130.468 C5.784,130.468 6.008,130.587 6.008,130.734 C6.008,130.882 5.784,131 5.508,131 L5.508,131 Z M5.508,121.001 C5.784,121.001 6.008,121.134 6.008,121.298 C6.008,121.462 5.784,121.595 5.508,121.595 C5.232,121.595 5.008,121.462 5.008,121.298 C5.008,121.133 5.232,121.001 5.508,121.001 L5.508,121.001 Z M3.008,122.001 L8.008,122.001 L8.008,130.001 L3.008,130.001 L3.008,122.001 L3.008,122.001 Z M2.209,168.399 L0.958,169.65 L2.375,171.067 L3.612,169.83 C4.035,170.098 4.504,170.299 5.007,170.414 L5.007,172.024 L7.01,172.024 L7.01,170.407 C7.51,170.288 7.98,170.094 8.401,169.825 L9.642,171.066 L11.059,169.649 L9.814,168.404 C10.073,167.983 10.266,167.515 10.374,167.017 L12.016,167.017 L12.016,165.014 L10.344,165.014 C10.224,164.531 10.036,164.075 9.775,163.666 L11.059,162.382 C11.059,162.382 10.7,162.023 10.343,161.666 C9.991,161.314 9.643,160.966 9.643,160.966 L8.345,162.264 C7.938,162.013 7.488,161.832 7.01,161.718 L7.01,160.009 L5.007,160.009 L5.007,161.718 C4.53,161.832 4.079,162.014 3.673,162.266 L2.374,160.967 L0.957,162.384 L2.242,163.669 C1.983,164.078 1.787,164.531 1.67,165.016 L0,165.016 L0,167.019 L1.652,167.019 C1.764,167.513 1.949,167.98 2.209,168.399 L2.209,168.399 Z M4.008,165.032 L5.008,163.938 L6.977,163.938 L8.008,164.969 L8.008,167 L7.039,168.031 L5.008,168.031 L4.008,166.968 L4.008,165.032 L4.008,165.032 Z M11.008,441.001 C11.008,440.449 10.56,440.001 10.008,440.001 L2.008,440.001 C1.456,440.001 1.008,440.449 1.008,441.001 L1.008,451.001 C1.008,451.553 1.456,452.001 2.008,452.001 L10.008,452.001 C10.56,452.001 11.008,451.553 11.008,451.001 L11.008,441.001 L11.008,441.001 Z M4.008,450.001 L2.008,450.001 L2.008,448.001 L4.008,448.001 L4.008,450.001 L4.008,450.001 Z M4.008,447.001 L2.008,447.001 L2.008,445.001 L4.008,445.001 L4.008,447.001 L4.008,447.001 Z M4.008,444.001 L2.008,444.001 L2.008,442.001 L4.008,442.001 L4.008,444.001 L4.008,444.001 Z M7.008,450.001 L5.008,450.001 L5.008,448.001 L7.008,448.001 L7.008,450.001 L7.008,450.001 Z M7.008,447.001 L5.008,447.001 L5.008,445.001 L7.008,445.001 L7.008,447.001 L7.008,447.001 Z M7.008,444.001 L5.008,444.001 L5.008,442.001 L7.008,442.001 L7.008,444.001 L7.008,444.001 Z M10.008,450.001 L8.008,450.001 L8.008,448.001 L10.008,448.001 L10.008,450.001 L10.008,450.001 Z M10.008,447.001 L8.008,447.001 L8.008,445.001 L10.008,445.001 L10.008,447.001 L10.008,447.001 Z M10.008,444.001 L8.008,444.001 L8.008,442.001 L10.008,442.001 L10.008,444.001 L10.008,444.001 Z" id="Shape" sketch:type="MSShapeGroup"></path>
            </g>
            <g id="Imported-EPS" sketch:type="MSLayerGroup" transform="translate(0.000000, 560.000000)" fill="#393939">
                <path d="M7.26260986,0.000394615351 C3.21960986,0.0523946154 -0.70139014,3.69339462 0.10660986,7.94439462 C0.32560986,9.09539462 0.64360986,8.96539462 1.15060986,8.94839462 C1.99960986,8.91939462 2.25660986,8.01339462 2.50760986,7.39839462 C3.00360986,6.17839462 4.12560986,6.16939462 3.96760986,7.67839462 C3.38460986,13.1553946 8.10560986,10.7573946 10.5266099,8.29339462 C13.7116099,5.04739462 11.3086099,-0.0516053846 7.26260986,0.000394615351 L7.26260986,0.000394615351 Z M2.35160986,5.22539462 C1.90960986,5.35239462 1.47160986,5.12439462 1.37560986,4.72039462 C1.28060986,4.31439462 1.56060986,3.88139462 2.00560986,3.75439462 C2.44960986,3.62739462 2.88560986,3.85539462 2.98060986,4.26239462 C3.07860986,4.66539462 2.79560986,5.09839462 2.35160986,5.22539462 L2.35160986,5.22539462 Z M4.46060986,3.15939462 C4.07960986,2.94639462 3.89760986,2.43839462 4.05660986,2.02839462 C4.21260986,1.61839462 4.65160986,1.46039462 5.03160986,1.67339462 C5.41260986,1.88739462 5.59460986,2.39239462 5.43660986,2.80139462 C5.27760986,3.21139462 4.84160986,3.37339462 4.46060986,3.15939462 L4.46060986,3.15939462 Z M7.44760986,8.99739462 C6.81560986,9.29739462 6.12560986,9.08939462 5.90660986,8.53239462 C5.68460986,7.97539462 6.02160986,7.27739462 6.65360986,6.97739462 C7.28860986,6.67439462 7.97860986,6.88239462 8.19760986,7.43939462 C8.41660986,7.99839462 8.08260986,8.69439462 7.44760986,8.99739462 L7.44760986,8.99739462 Z M7.53160986,2.21639462 C7.23660986,2.21639462 6.99960986,1.88739462 6.99960986,1.48039462 C6.99960986,1.07639462 7.23660986,0.747394615 7.53160986,0.747394615 C7.82860986,0.747394615 8.06460986,1.07639462 8.06460986,1.48039462 C8.06460986,1.88739462 7.82860986,2.21639462 7.53160986,2.21639462 L7.53160986,2.21639462 Z M9.69560986,3.11039462 C9.45560986,3.22039462 9.16760986,3.03839462 9.05460986,2.70339462 C8.93860986,2.37139462 9.04260986,2.01439462 9.28260986,1.90439462 C9.52160986,1.79439462 9.81060986,1.97639462 9.92360986,2.30839462 C10.0386099,2.64039462 9.93460986,2.99839462 9.69560986,3.11039462 L9.69560986,3.11039462 Z" id="Page-1" sketch:type="MSShapeGroup"></path>
            </g>
            <path d="M12.001,410.002 L9.998,410.002 L9.998,411.537 L6.966,408.501 L9.998,405.466 L9.998,407.001 L12.001,407.001 L12.001,410.002 L12.001,410.002 Z M9.537,412.002 L9.998,411.537 L9.998,412.002 L9.537,412.002 L9.537,412.002 Z M7.999,406.464 L5.964,408.501 L9.464,412.002 L0,412.002 L0,409.999 L5,407.5 L5,406.787 C3.838,406.302 3.001,405.021 3.001,403.501 C3.001,400.837 3.78,400 5.999,400 C8.195,400 9,400.837 9,403.501 C9,404.531 8.61,405.445 7.999,406.083 L7.999,406.464 L7.999,406.464 Z" id="follow" fill="#393939" sketch:type="MSShapeGroup"></path>
        </g>
    </g>
</svg>