<?xml version="1.0" encoding="UTF-8" standalone="no"?>
<svg width="139px" height="139px" viewBox="0 0 139 139" version="1.1" xmlns="http://www.w3.org/2000/svg" xmlns:xlink="http://www.w3.org/1999/xlink" xmlns:sketch="http://www.bohemiancoding.com/sketch/ns">
    <!-- Generator: Sketch 3.1 (8751) - http://www.bohemiancoding.com/sketch -->
    <title>search_color_sprite</title>
    <desc>Created with Sketch.</desc>
    <defs></defs>
    <g id="slice" stroke="none" stroke-width="1" fill="none" fill-rule="evenodd" sketch:type="MSPage">
        <g id="Landscape" sketch:type="MSArtboardGroup" transform="translate(-455.000000, -275.000000)">
            <path d="M470.001099,278.99292 L462.433472,286.362732 L456.556763,280.471008 L459.047648,278.019755 L462.525961,281.506287 L467.553052,276.471651 L470.001099,278.99292 Z" id="Rectangle-133" fill-opacity="0.2" fill="#000000" sketch:type="MSShapeGroup"></path>
            <path d="M469.057861,279.025993 L462.525961,285.547767 L457.469971,280.520752 L459.023201,279.025993 L462.525961,282.46405 L467.504631,277.437035 L469.057861,279.025993 Z" id="Rectangle-134" fill="#FFFFFF" sketch:type="MSShapeGroup"></path>
            <path d="M486,355 L486,355 L486,355 L486,355 L481,360 L486,365 L486,365 L492,365 L492,355 L486,355 L486,355 Z" id="Rectangle-121" fill="#CCCCCC" sketch:type="MSShapeGroup"></path>
            <g id="Oval-20-+-Oval-21" sketch:type="MSLayerGroup" transform="translate(455.000000, 394.121320)" fill-opacity="0.7" fill="#FFFFFF">
                <path d="M5,9.87867966 C7.76142375,9.87867966 10,7.64010341 10,4.87867966 C10,2.11725591 7.76142375,-0.121320344 5,-0.121320344 C2.23857625,-0.121320344 0,2.11725591 0,4.87867966 C0,7.64010341 2.23857625,9.87867966 5,9.87867966 Z M5,8.87867966 C7.209139,8.87867966 9,7.08781866 9,4.87867966 C9,2.66954066 7.209139,0.878679656 5,0.878679656 C2.790861,0.878679656 1,2.66954066 1,4.87867966 C1,7.08781866 2.790861,8.87867966 5,8.87867966 Z" id="Oval-21" sketch:type="MSShapeGroup"></path>
            </g>
            <path d="M460,403 C462.209139,403 464,401.209139 464,399 C464,396.790861 462.209139,395 460,395 C457.790861,395 456,396.790861 456,399 C456,401.209139 457.790861,403 460,403 Z M460,402 C461.656854,402 463,400.656854 463,399 C463,397.343146 461.656854,396 460,396 C458.343146,396 457,397.343146 457,399 C457,400.656854 458.343146,402 460,402 Z" id="Oval-22" fill-opacity="0.2" fill="#000000" sketch:type="MSShapeGroup"></path>
            <path d="M457,319 C458.104569,319 459,318.104569 459,317 C459,315.895431 458.104569,315 457,315 C455.895431,315 455,315.895431 455,317 C455,318.104569 455.895431,319 457,319 Z M463,319 C464.104569,319 465,318.104569 465,317 C465,315.895431 464.104569,315 463,315 C461.895431,315 461,315.895431 461,317 C461,318.104569 461.895431,319 463,319 Z M469,319 C470.104569,319 471,318.104569 471,317 C471,315.895431 470.104569,315 469,315 C467.895431,315 467,315.895431 467,317 C467,318.104569 467.895431,319 469,319 Z" id="Oval-8" fill="#A4A5A5" sketch:type="MSShapeGroup"></path>
            <path d="M507,319 C508.104569,319 509,318.104569 509,317 C509,315.895431 508.104569,315 507,315 C505.895431,315 505,315.895431 505,317 C505,318.104569 505.895431,319 507,319 Z M513,319 C514.104569,319 515,318.104569 515,317 C515,315.895431 514.104569,315 513,315 C511.895431,315 511,315.895431 511,317 C511,318.104569 511.895431,319 513,319 Z M519,319 C520.104569,319 521,318.104569 521,317 C521,315.895431 520.104569,315 519,315 C517.895431,315 517,315.895431 517,317 C517,318.104569 517.895431,319 519,319 Z" id="Oval-8" fill="#504A4A" sketch:type="MSShapeGroup"></path>
            <path d="M557,319 C558.104569,319 559,318.104569 559,317 C559,315.895431 558.104569,315 557,315 C555.895431,315 555,315.895431 555,317 C555,318.104569 555.895431,319 557,319 Z M563,319 C564.104569,319 565,318.104569 565,317 C565,315.895431 564.104569,315 563,315 C561.895431,315 561,315.895431 561,317 C561,318.104569 561.895431,319 563,319 Z M569,319 C570.104569,319 571,318.104569 571,317 C571,315.895431 570.104569,315 569,315 C567.895431,315 567,315.895431 567,317 C567,318.104569 567.895431,319 569,319 Z" id="Oval-8" fill="#1F1D1E" sketch:type="MSShapeGroup"></path>
            <path d="M486.432312,356.010925 L482.435513,360.007725 L486.447421,364.019634 L491.000146,364.019634 L491.000146,356.012081 L486.432312,356.010925 Z" id="Path-9" fill="#FFFFFF" sketch:type="MSShapeGroup"></path>
            <path d="M486,355 L486,355 L486,355 L486,355 L481,360 L486,365 L486,365 L492,365 L492,355 L486,355 L486,355 Z" id="Rectangle-126" fill="#CCCCCC" sketch:type="MSShapeGroup"></path>
            <path d="M486.432312,356.010925 L482.435513,360.007725 L486.447421,364.019634 L491.000146,364.019634 L491.000146,356.012081 L486.432312,356.010925 Z" id="Path-10" fill="#FFFFFF" sketch:type="MSShapeGroup"></path>
            <g id="Rectangle-126-+-Path-10" sketch:type="MSLayerGroup" transform="translate(460.500000, 360.000000) scale(-1, 1) translate(-460.500000, -360.000000) translate(455.000000, 355.000000)">
                <path d="M5,-0.121320344 L5,-0.121320344 L5,-0.121320344 L5,-0.121320344 L-5.68434189e-14,4.87867966 L5,9.87867966 L5,9.87867966 L11,9.87867966 L11,-0.121320344 L5,-0.121320344 L5,-0.121320344 Z" id="Rectangle-126" fill="#CCCCCC" sketch:type="MSShapeGroup"></path>
                <path d="M5.43231201,1.01092529 L1.43551254,5.00772476 L5.44742134,9.01963357 L10.0001461,9.01963357 L10.0001461,1.0120813 L5.43231201,1.01092529 Z" id="Path-10" fill="#FFFFFF" sketch:type="MSShapeGroup"></path>
            </g>
            <g id="Group" sketch:type="MSLayerGroup" transform="translate(531.000000, 355.000000)">
                <path d="M5,0 L5,0 L5,0 L5,0 L0,5 L5,10 L5,10 L11,10 L11,0 L5,0 L5,0 Z" id="Rectangle-128" fill="#CCCCCC" sketch:type="MSShapeGroup"></path>
                <path d="M5.43231201,1.01092529 L1.43551254,5.00772476 L5.44742134,9.01963357 L10.0001461,9.01963357 L10.0001461,1.0120813 L5.43231201,1.01092529 Z" id="Path-12" fill="#FFFFFF" sketch:type="MSShapeGroup"></path>
                <path d="M5,0 L5,0 L5,0 L5,0 L0,5 L5,10 L5,10 L11,10 L11,0 L5,0 L5,0 Z" id="Rectangle-127" fill="#BBBBBB" sketch:type="MSShapeGroup"></path>
                <path d="M5.43231201,1.01092529 L1.43551254,5.00772476 L5.44742134,9.01963357 L10.0001461,9.01963357 L10.0001461,1.0120813 L5.43231201,1.01092529 Z" id="Path-11" fill="#FFFFFF" sketch:type="MSShapeGroup"></path>
            </g>
            <g id="Rectangle-126-+-Path-11" sketch:type="MSLayerGroup" transform="translate(510.500000, 360.000000) scale(-1, 1) translate(-510.500000, -360.000000) translate(505.000000, 355.000000)">
                <path d="M5,-0.121320344 L5,-0.121320344 L5,-0.121320344 L5,-0.121320344 L0,4.87867966 L5,9.87867966 L5,9.87867966 L11,9.87867966 L11,-0.121320344 L5,-0.121320344 L5,-0.121320344 Z" id="Rectangle-126" fill="#BBBBBB" sketch:type="MSShapeGroup"></path>
                <path d="M5.43231201,1.01092529 L1.43551254,5.00772476 L5.44742134,9.01963357 L10.0001461,9.01963357 L10.0001461,1.0120813 L5.43231201,1.01092529 Z" id="Path-10" fill="#FFFFFF" sketch:type="MSShapeGroup"></path>
            </g>
            <g id="Group-2" sketch:type="MSLayerGroup" transform="translate(581.000000, 355.000000)">
                <path d="M5,0 L5,0 L5,0 L5,0 L0,5 L5,10 L5,10 L11,10 L11,0 L5,0 L5,0 Z" id="Rectangle-128" fill="#CCCCCC" sketch:type="MSShapeGroup"></path>
                <path d="M5.43231201,1.01092529 L1.43551254,5.00772476 L5.44742134,9.01963357 L10.0001461,9.01963357 L10.0001461,1.0120813 L5.43231201,1.01092529 Z" id="Path-12" fill="#FFFFFF" sketch:type="MSShapeGroup"></path>
                <path d="M5,0 L5,0 L5,0 L5,0 L0,5 L5,10 L5,10 L11,10 L11,0 L5,0 L5,0 Z" id="Rectangle-127" fill="#BBBBBB" sketch:type="MSShapeGroup"></path>
                <path d="M5.43231201,1.01092529 L1.43551254,5.00772476 L5.44742134,9.01963357 L10.0001461,9.01963357 L10.0001461,1.0120813 L5.43231201,1.01092529 Z" id="Path-11" fill="#F2F2F2" sketch:type="MSShapeGroup"></path>
            </g>
            <g id="Rectangle-126-+-Path-12" sketch:type="MSLayerGroup" transform="translate(560.500000, 360.000000) scale(-1, 1) translate(-560.500000, -360.000000) translate(555.000000, 355.000000)">
                <path d="M5,-0.121320344 L5,-0.121320344 L5,-0.121320344 L5,-0.121320344 L0,4.87867966 L5,9.87867966 L5,9.87867966 L11,9.87867966 L11,-0.121320344 L5,-0.121320344 L5,-0.121320344 Z" id="Rectangle-126" fill="#BBBBBB" sketch:type="MSShapeGroup"></path>
                <path d="M5.43231201,1.01092529 L1.43551254,5.00772476 L5.44742134,9.01963357 L10.0001461,9.01963357 L10.0001461,1.0120813 L5.43231201,1.01092529 Z" id="Path-10" fill="#F2F2F2" sketch:type="MSShapeGroup"></path>
            </g>
        </g>
    </g>
</svg>